<?xml version="1.0" encoding="utf-8"?>
<!-- Generator: Adobe Illustrator 25.4.1, SVG Export Plug-In . SVG Version: 6.00 Build 0)  -->
<svg version="1.1" id="emoji" xmlns="http://www.w3.org/2000/svg" xmlns:xlink="http://www.w3.org/1999/xlink" x="0px" y="0px"
	 viewBox="0 0 72 72" style="enable-background:new 0 0 72 72;" xml:space="preserve">
<style type="text/css">
	.st0{fill:none;}
	.st1{fill:none;stroke:#000000;stroke-width:2;stroke-miterlimit:10;}
	.st2{fill:none;stroke:#000000;stroke-width:2;stroke-linecap:round;stroke-linejoin:round;stroke-miterlimit:10;}
</style>
<g id="color">
	<path class="st0" d="M36,13c-12.68,0-23,10.32-23,23c0,12.68,10.32,23,23,23c12.68,0,23-10.32,23-23C59,23.32,48.68,13,36,13z"/>
</g>
<g id="hair">
</g>
<g id="skin">
</g>
<g id="skin-shadow">
</g>
<g id="line">
	<circle class="st1" cx="36" cy="36" r="23"/>
	<path class="st2" d="M28,46c1.58-2.56,4.9-4.13,8.42-4c3.23,0.12,6.14,1.66,7.58,4"/>
	<path d="M30,32.93c0,1.66-1.34,3-3,3c-1.66,0-3-1.34-3-3c0-1.66,1.34-3,3-3C28.66,29.93,30,31.27,30,32.93"/>
	<path d="M48,32.93c0,1.66-1.34,3-3,3s-3-1.34-3-3c0-1.66,1.34-3,3-3S48,31.27,48,32.93"/>
	<line class="st2" x1="23" y1="24" x2="30" y2="28"/>
	<line class="st2" x1="49" y1="24" x2="42" y2="28"/>
</g>
</svg>
