<?xml version="1.0" encoding="utf-8"?>
<!-- Generator: Adobe Illustrator 25.4.1, SVG Export Plug-In . SVG Version: 6.00 Build 0)  -->
<svg version="1.1" id="emoji" xmlns="http://www.w3.org/2000/svg" xmlns:xlink="http://www.w3.org/1999/xlink" x="0px" y="0px"
	 viewBox="0 0 48 48" style="enable-background:new 0 0 48 48;" xml:space="preserve">
<style type="text/css">
	.st0{fill:#FF4B22;}
	.st1{fill:none;stroke:#000000;stroke-width:2;stroke-miterlimit:10;}
	.st2{fill:none;stroke:#000000;stroke-width:2;stroke-linecap:round;stroke-linejoin:round;stroke-miterlimit:10;}
</style>
<g id="color">
	<path class="st0" d="M24,1C11.3,1,1,11.3,1,24s10.3,23,23,23s23-10.3,23-23S36.7,1,24,1z"/>
</g>
<g id="hair">
</g>
<g id="skin">
</g>
<g id="skin-shadow">
</g>
<g id="line">
	<circle class="st1" cx="24" cy="24" r="23"/>
	<path class="st2" d="M16,34c1.6-2.6,4.9-4.1,8.4-4c3.2,0.1,6.1,1.7,7.6,4"/>
	<path d="M18,20.9c0,1.7-1.3,3-3,3s-3-1.3-3-3s1.3-3,3-3S18,19.3,18,20.9"/>
	<path d="M36,20.9c0,1.7-1.3,3-3,3s-3-1.3-3-3s1.3-3,3-3S36,19.3,36,20.9"/>
	<line class="st2" x1="11" y1="12" x2="18" y2="16"/>
	<line class="st2" x1="37" y1="12" x2="30" y2="16"/>
</g>
</svg>
