<?xml version="1.0" encoding="utf-8"?>
<!-- Generator: Adobe Illustrator 25.4.1, SVG Export Plug-In . SVG Version: 6.00 Build 0)  -->
<svg version="1.1" id="emoji" xmlns="http://www.w3.org/2000/svg" xmlns:xlink="http://www.w3.org/1999/xlink" x="0px" y="0px"
	 viewBox="0 0 72 72" style="enable-background:new 0 0 72 72;" xml:space="preserve">
<style type="text/css">
	.st0{fill:none;}
	.st1{fill:none;stroke:#000000;stroke-width:2;stroke-miterlimit:10;}
	.st2{fill:none;stroke:#000000;stroke-width:2;stroke-linecap:round;stroke-linejoin:round;stroke-miterlimit:10;}
</style>
<g id="color">
	<path class="st0" d="M36.2,13.32c-12.57,0-22.8,10.23-22.8,22.8c0,12.57,10.23,22.8,22.8,22.8c12.57,0,22.8-10.23,22.8-22.8
		C59,23.54,48.77,13.32,36.2,13.32z"/>
	<path class="st0" d="M22.77,33.82c-1.08,1.1-3.11,3.49-3.29,5.92c-0.11,1.52,1.12,2.94,2.64,3.05c1.57,0.11,2.94-1.07,3.05-2.64
		l0,0C25.35,37.73,23.68,35.07,22.77,33.82z"/>
</g>
<g id="hair">
</g>
<g id="skin">
</g>
<g id="skin-shadow">
</g>
<g id="line">
	<circle class="st1" cx="36" cy="36" r="23"/>
	<path class="st2" d="M26.5,48c1.88-3.83,5.82-6.2,10-6c3.83,0.18,7.29,2.49,9,6"/>
	<path class="st1" d="M20.39,41.63c-0.53-0.53-0.83-1.24-0.83-1.99c0-2.48,2.34-4.85,2.44-4.95c0.21-0.21,0.54-0.21,0.75,0
		c0.1,0.1,2.44,2.47,2.44,4.95l0,0c0,1.55-1.27,2.82-2.82,2.82C21.63,42.46,20.92,42.16,20.39,41.63z"/>
	<path d="M30,31c0,1.66-1.34,3-3,3c-1.66,0-3-1.34-3-3c0-1.66,1.34-3,3-3C28.66,28,30,29.34,30,31"/>
	<path d="M48,31c0,1.66-1.34,3-3,3s-3-1.34-3-3c0-1.66,1.34-3,3-3S48,29.34,48,31"/>
</g>
</svg>
