<?xml version="1.0" encoding="utf-8"?>
<!-- Generator: Adobe Illustrator 25.4.1, SVG Export Plug-In . SVG Version: 6.00 Build 0)  -->
<svg version="1.1" id="emoji" xmlns="http://www.w3.org/2000/svg" xmlns:xlink="http://www.w3.org/1999/xlink" x="0px" y="0px"
	 viewBox="0 0 48 48" style="enable-background:new 0 0 48 48;" xml:space="preserve">
<style type="text/css">
	.st0{fill:none;}
	.st1{fill:none;stroke:#000000;stroke-width:2;stroke-miterlimit:10;}
	.st2{fill:none;stroke:#000000;stroke-width:2;stroke-linecap:round;stroke-linejoin:round;stroke-miterlimit:10;}
</style>
<g id="color">
	<path class="st0" d="M24.2,1.3C11.6,1.3,1.4,11.5,1.4,24.1s10.2,22.8,22.8,22.8S47,36.7,47,24.1C47,11.5,36.8,1.3,24.2,1.3z"/>
	<path class="st0" d="M10.8,21.8c-1.1,1.1-3.1,3.5-3.3,5.9c-0.1,1.5,1.1,2.9,2.6,3c1.6,0.1,2.9-1.1,3-2.6l0,0
		C13.4,25.7,11.7,23.1,10.8,21.8z"/>
</g>
<g id="hair">
</g>
<g id="skin">
</g>
<g id="skin-shadow">
</g>
<g id="line">
	<circle class="st1" cx="24" cy="24" r="23"/>
	<path class="st2" d="M14.5,36c1.9-3.8,5.8-6.2,10-6c3.8,0.2,7.3,2.5,9,6"/>
	<path class="st1" d="M8.4,29.6c-0.5-0.5-0.8-1.2-0.8-2c0-2.5,2.3-4.8,2.4-5c0.2-0.2,0.5-0.2,0.8,0c0.1,0.1,2.4,2.5,2.4,5l0,0
		c0,1.5-1.3,2.8-2.8,2.8C9.6,30.5,8.9,30.2,8.4,29.6z"/>
	<path d="M18,19c0,1.7-1.3,3-3,3s-3-1.3-3-3s1.3-3,3-3S18,17.3,18,19"/>
	<path d="M36,19c0,1.7-1.3,3-3,3s-3-1.3-3-3s1.3-3,3-3S36,17.3,36,19"/>
</g>
</svg>
