<?xml version="1.0" encoding="utf-8"?>
<!-- Generator: Adobe Illustrator 25.4.1, SVG Export Plug-In . SVG Version: 6.00 Build 0)  -->
<svg version="1.1" id="Layer_1" xmlns="http://www.w3.org/2000/svg" xmlns:xlink="http://www.w3.org/1999/xlink" x="0px" y="0px"
	 viewBox="0 0 100 100" style="enable-background:new 0 0 100 100;" xml:space="preserve">
<style type="text/css">
	.st0{display:none;}
</style>
<g id="Layer_2_00000005246572601272688880000017063917230956745616_" class="st0">
</g>
<g id="Layer_1_00000020388304566594448710000017343981766415413378_">
	<g>
		<g>
			<path d="M16.26,31.55c22.5,0,44.98,0,67.48,0c2.06,0,2.06-3.2,0-3.2c-22.5,0-44.98,0-67.48,0C14.2,28.35,14.2,31.55,16.26,31.55
				L16.26,31.55z"/>
		</g>
	</g>
	<g>
		<g>
			<path d="M24.1,51.6c17.26,0,34.54,0,51.8,0c2.06,0,2.06-3.2,0-3.2c-17.26,0-34.54,0-51.8,0C22.04,48.4,22.03,51.6,24.1,51.6
				L24.1,51.6z"/>
		</g>
	</g>
	<g>
		<g>
			<path d="M32.03,71.65c11.98,0,23.95,0,35.93,0c2.06,0,2.06-3.2,0-3.2c-11.98,0-23.95,0-35.93,0
				C29.97,68.45,29.97,71.65,32.03,71.65L32.03,71.65z"/>
		</g>
	</g>
</g>
</svg>
