<?xml version="1.0" encoding="utf-8"?>
<!-- Generator: Adobe Illustrator 25.4.1, SVG Export Plug-In . SVG Version: 6.00 Build 0)  -->
<svg version="1.1" xmlns="http://www.w3.org/2000/svg" xmlns:xlink="http://www.w3.org/1999/xlink" x="0px" y="0px"
	 viewBox="0 0 100 100" style="enable-background:new 0 0 100 100;" xml:space="preserve">
<style type="text/css">
	.st0{display:none;}
</style>
<g id="Layer_2" class="st0">
</g>
<g id="Layer_1">
	<g>
		<g>
			<path d="M17.62,32.72c21.07,0,42.13,0,63.2,0c1.93,0,1.93-3,0-3c-21.07,0-42.13,0-63.2,0C15.69,29.72,15.69,32.72,17.62,32.72
				L17.62,32.72z"/>
		</g>
	</g>
	<g>
		<g>
			<path d="M24.96,51.5c16.17,0,32.35,0,48.52,0c1.93,0,1.93-3,0-3c-16.17,0-32.35,0-48.52,0C23.03,48.5,23.02,51.5,24.96,51.5
				L24.96,51.5z"/>
		</g>
	</g>
	<g>
		<g>
			<path d="M32.39,70.28c11.22,0,22.43,0,33.65,0c1.93,0,1.93-3,0-3c-11.22,0-22.43,0-33.65,0C30.46,67.28,30.46,70.28,32.39,70.28
				L32.39,70.28z"/>
		</g>
	</g>
</g>
</svg>
