<?xml version="1.0" encoding="utf-8"?>
<!-- Generator: Adobe Illustrator 25.4.1, SVG Export Plug-In . SVG Version: 6.00 Build 0)  -->
<svg version="1.1" id="emoji" xmlns="http://www.w3.org/2000/svg" xmlns:xlink="http://www.w3.org/1999/xlink" x="0px" y="0px"
	 viewBox="0 0 49 48" style="enable-background:new 0 0 49 48;" xml:space="preserve">
<style type="text/css">
	.st0{fill:#EA5A47;}
	.st1{fill:none;stroke:#000000;stroke-width:2;stroke-linejoin:round;stroke-miterlimit:10;}
</style>
<g id="color">
	<path class="st0" d="M48,13.5C48,6.6,42.4,1,35.5,1c-4.8,0-8.9,2.7-11,6.6C22.4,3.7,18.3,1,13.5,1C6.6,1,1,6.6,1,13.5
		c0,3,1,5.7,2.8,7.8l0,0L24.5,47l20.7-25.7l0,0C47,19.2,48,16.5,48,13.5z"/>
</g>
<g id="hair">
</g>
<g id="skin">
</g>
<g id="skin-shadow">
</g>
<g id="line">
	<path class="st1" d="M48,13.5C48,6.6,42.4,1,35.5,1c-4.8,0-8.9,2.7-11,6.6C22.4,3.7,18.3,1,13.5,1C6.6,1,1,6.6,1,13.5
		c0,3,1,5.7,2.8,7.8l0,0L24.5,47l20.7-25.7l0,0C47,19.2,48,16.5,48,13.5z"/>
</g>
</svg>
