<?xml version="1.0" encoding="utf-8"?>
<!-- Generator: Adobe Illustrator 25.4.1, SVG Export Plug-In . SVG Version: 6.00 Build 0)  -->
<svg version="1.1" id="emoji" xmlns="http://www.w3.org/2000/svg" xmlns:xlink="http://www.w3.org/1999/xlink" x="0px" y="0px"
	 viewBox="0 0 72 72" style="enable-background:new 0 0 72 72;" xml:space="preserve">
<style type="text/css">
	.st0{fill:none;}
	.st1{fill:none;stroke:#000000;stroke-width:2;stroke-linecap:round;stroke-linejoin:round;}
</style>
<g id="color">
	<circle class="st0" cx="36" cy="36" r="23"/>
	<path class="st0" d="M50.6,41.64c0.01,1.54-0.28,3.07-0.87,4.49C37.24,49.16,24.3,46.47,22.24,46c-0.56-1.39-0.84-2.87-0.83-4.36
		h0.11c0,0,14.8,3.59,28.89,0.07L50.6,41.64z"/>
	<path d="M49.73,46.13c-1.79,4.27-6.35,7.23-13.69,7.23c-7.41,0-12.03-3.03-13.8-7.36C24.3,46.47,37.24,49.16,49.73,46.13z"/>
</g>
<g id="hair">
</g>
<g id="skin">
</g>
<g id="skin-shadow">
</g>
<g id="line">
	<polyline class="st1" points="25.17,27.41 31.75,31.43 25.17,35.17 	"/>
	<polyline class="st1" points="46.83,27.41 40.24,31.43 46.83,35.17 	"/>
	<circle class="st1" cx="36" cy="36" r="23"/>
	<path class="st1" d="M50.6,41.64c0.01,1.54-0.28,3.07-0.87,4.49C37.24,49.16,24.3,46.47,22.24,46c-0.56-1.39-0.84-2.87-0.83-4.36
		h0.11c0,0,14.8,3.59,28.89,0.07L50.6,41.64z"/>
	<path class="st1" d="M49.73,46.13c-1.79,4.27-6.35,7.23-13.69,7.23c-7.41,0-12.03-3.03-13.8-7.36
		C24.3,46.47,37.24,49.16,49.73,46.13z"/>
</g>
</svg>
