<?xml version="1.0" encoding="utf-8"?>
<!-- Generator: Adobe Illustrator 25.4.1, SVG Export Plug-In . SVG Version: 6.00 Build 0)  -->
<svg version="1.1" id="emoji" xmlns="http://www.w3.org/2000/svg" xmlns:xlink="http://www.w3.org/1999/xlink" x="0px" y="0px"
	 viewBox="0 0 48 48" style="enable-background:new 0 0 48 48;" xml:space="preserve">
<style type="text/css">
	.st0{fill:#FCEA2B;}
	.st1{fill:#FFFFFF;}
	.st2{fill:none;stroke:#000000;stroke-width:2;stroke-linecap:round;stroke-linejoin:round;}
</style>
<g id="color">
	<circle class="st0" cx="24" cy="24" r="23"/>
	<path class="st1" d="M38.6,29.6c0,1.5-0.3,3.1-0.9,4.5c-12.5,3-25.4,0.3-27.5-0.1c-0.6-1.4-0.8-2.9-0.8-4.4h0.1
		c0,0,14.8,3.6,28.9,0.1L38.6,29.6z"/>
	<path d="M37.7,34.1c-1.8,4.3-6.3,7.2-13.7,7.2c-7.4,0-12-3-13.8-7.4C12.3,34.5,25.2,37.2,37.7,34.1z"/>
</g>
<g id="hair">
</g>
<g id="skin">
</g>
<g id="skin-shadow">
</g>
<g id="line">
	<polyline class="st2" points="13.2,15.4 19.8,19.4 13.2,23.2 	"/>
	<polyline class="st2" points="34.8,15.4 28.2,19.4 34.8,23.2 	"/>
	<circle class="st2" cx="24" cy="24" r="23"/>
	<path class="st2" d="M38.6,29.6c0,1.5-0.3,3.1-0.9,4.5c-12.5,3-25.4,0.3-27.5-0.1c-0.6-1.4-0.8-2.9-0.8-4.4h0.1
		c0,0,14.8,3.6,28.9,0.1L38.6,29.6z"/>
	<path class="st2" d="M37.7,34.1c-1.8,4.3-6.3,7.2-13.7,7.2c-7.4,0-12-3-13.8-7.4C12.3,34.5,25.2,37.2,37.7,34.1z"/>
</g>
</svg>
