<?xml version="1.0" encoding="utf-8"?>
<!-- Generator: Adobe Illustrator 25.4.1, SVG Export Plug-In . SVG Version: 6.00 Build 0)  -->
<svg version="1.1" id="Layer_1" xmlns="http://www.w3.org/2000/svg" xmlns:xlink="http://www.w3.org/1999/xlink" x="0px" y="0px"
	 viewBox="0 0 512 512" style="enable-background:new 0 0 512 512;" xml:space="preserve">
<g>
	<g>
		<g>
			<path d="M340.97,207.72H443.1c12.84,0,23.17,15.05,23.17,27.51c0,4.02,0,16.24-24.01,18.88c-4.08,0.45-7.09,4-6.87,8.1
				c0.22,4.09,3.61,7.3,7.71,7.3c12.78,0,23.17,10.4,23.17,23.17c0,12.78-10.4,23.17-23.17,23.17h-15.45
				c-4.27,0-7.72,3.46-7.72,7.72c0,4.26,3.45,7.72,7.72,7.72c12.78,0,23.17,10.4,23.17,23.17c0,12.78-10.4,23.17-23.17,23.17h-23.17
				c-4.27,0-7.72,3.46-7.72,7.72s3.45,7.72,7.72,7.72c8.09,0,15.45,7.36,15.45,15.45c0,7.79-7.65,15.45-15.45,15.45H288.62
				c-32.25,0-43.85-6.4-57.29-13.81c-11.36-6.26-54.25-13.36-79.75-17.01c-4.23-0.61-1.14,2.33-1.74,6.55
				c-0.6,4.23-2.67,8.14,1.55,8.74c22.72,3.24,61.79,9.35,72.49,15.25c14.03,7.73,28.52,15.73,64.74,15.73h115.86
				c16.17,0,30.9-14.73,30.9-30.9c0-5.64-1.61-10.98-4.37-15.59c19.73-1.7,35.27-18.31,35.27-38.47c0-9.8-3.68-18.77-9.72-25.59
				c14.68-5.48,25.17-19.63,25.17-36.2c0-12.28-5.76-23.24-14.72-30.32c12.37-7.65,14.72-19.35,14.72-27.13
				c0-20.28-16.52-42.96-38.62-42.96H342.01"/>
			<path d="M152.48,223.17c22.95,0,82.98-25.61,98.25-40.88c33.16-33.16,33.16-74.37,33.16-136.77c0-4.84,2.89-7.72,7.72-7.72
				c26.71,0,38.62,11.91,38.62,38.62l0,131.31c8.41,0,4.14,0,8.41,0c4.27,0,0,0,8.31,0l-1.28-131.31c0-35.38-18.7-54.07-54.07-54.07
				c-13.42,0-23.17,9.75-23.17,23.17c0,60.63,0,97.21-28.63,125.85c-22.42,22.42-73.01,36.36-85.33,36.36
				c-4.27,0,1.28,3.46,1.28,7.72S148.21,223.17,152.48,223.17z"/>
			<path d="M155.59,192.27H32c-4.27,0-7.72,3.46-7.72,7.72v231.72c0,4.26,3.45,7.72,7.72,7.72h123.58c4.27,0,7.72-3.46,7.72-7.72
				V200C163.31,195.74,159.86,192.27,155.59,192.27z M147.86,424H39.73V207.72h108.14L147.86,424L147.86,424z"/>
		</g>
	</g>
</g>
</svg>
