<?xml version="1.0" encoding="utf-8"?>
<!-- Generator: Adobe Illustrator 25.4.1, SVG Export Plug-In . SVG Version: 6.00 Build 0)  -->
<svg version="1.1" xmlns="http://www.w3.org/2000/svg" xmlns:xlink="http://www.w3.org/1999/xlink" x="0px" y="0px"
	 viewBox="0 0 100 100" style="enable-background:new 0 0 100 100;" xml:space="preserve">
<style type="text/css">
	.st0{display:none;}
</style>
<g id="Layer_2" class="st0">
</g>
<g id="Layer_1">
	<g>
		<g>
			<path d="M48.5,16.35c0,17.45,0,34.89,0,52.34c0,4.98,0,9.97,0,14.95c0,1.93,3,1.93,3,0c0-17.45,0-34.89,0-52.34
				c0-4.98,0-9.97,0-14.95C51.5,14.42,48.5,14.42,48.5,16.35L48.5,16.35z"/>
		</g>
	</g>
	<g>
		<g>
			<path d="M83.65,48.5c-17.45,0-34.89,0-52.34,0c-4.98,0-9.97,0-14.95,0c-1.93,0-1.93,3,0,3c17.45,0,34.89,0,52.34,0
				c4.98,0,9.97,0,14.95,0C85.58,51.5,85.58,48.5,83.65,48.5L83.65,48.5z"/>
		</g>
	</g>
</g>
</svg>
