<?xml version="1.0" encoding="utf-8"?>
<!-- Generator: Adobe Illustrator 25.4.1, SVG Export Plug-In . SVG Version: 6.00 Build 0)  -->
<svg version="1.1" id="emoji" xmlns="http://www.w3.org/2000/svg" xmlns:xlink="http://www.w3.org/1999/xlink" x="0px" y="0px"
	 viewBox="0 0 48 48" style="enable-background:new 0 0 48 48;" xml:space="preserve">
<style type="text/css">
	.st0{fill:#FCEA2B;}
	.st1{fill:none;stroke:#000000;stroke-width:2;stroke-linecap:round;stroke-linejoin:round;stroke-miterlimit:10;}
</style>
<g id="color">
	<circle class="st0" cx="24" cy="24" r="23"/>
	<ellipse cx="24" cy="36.4" rx="5.2" ry="6.5"/>
</g>
<g id="hair">
</g>
<g id="skin">
</g>
<g id="skin-shadow">
</g>
<g id="line">
	<path class="st1" d="M7.2,45.3"/>
	<path class="st1" d="M7.2,45.3"/>
	<circle class="st1" cx="24" cy="24" r="23"/>
	<path class="st1" d="M8.7,15.2c0.7-1.4,1.9-2.5,3.4-3c1.4-0.7,3-0.9,4.5-0.4"/>
	<path class="st1" d="M39.3,15.2c-1.6-2.8-4.8-4.2-7.9-3.4"/>
	<ellipse class="st1" cx="24" cy="36.4" rx="5.2" ry="6.5"/>
	<path d="M18,23c0,1.7-1.3,3-3,3s-3-1.3-3-3s1.3-3,3-3S18,21.3,18,23"/>
	<path d="M36,23c0,1.7-1.3,3-3,3s-3-1.3-3-3s1.3-3,3-3S36,21.3,36,23"/>
</g>
</svg>
