<?xml version="1.0" encoding="utf-8"?>
<!-- Generator: Adobe Illustrator 25.4.1, SVG Export Plug-In . SVG Version: 6.00 Build 0)  -->
<svg version="1.1" id="emoji" xmlns="http://www.w3.org/2000/svg" xmlns:xlink="http://www.w3.org/1999/xlink" x="0px" y="0px"
	 viewBox="0 0 72 72" style="enable-background:new 0 0 72 72;" xml:space="preserve">
<style type="text/css">
	.st0{fill:#FCEA2B;}
	.st1{fill:none;stroke:#000000;stroke-width:2;stroke-linecap:round;stroke-linejoin:round;stroke-miterlimit:10;}
</style>
<g id="color">
	<circle class="st0" cx="36" cy="36" r="23"/>
	<ellipse cx="36" cy="48.4" rx="5.25" ry="6.54"/>
</g>
<g id="hair">
</g>
<g id="skin">
</g>
<g id="skin-shadow">
</g>
<g id="line">
	<path class="st1" d="M19.2,57.27"/>
	<path class="st1" d="M19.2,57.27"/>
	<circle class="st1" cx="36" cy="36" r="23"/>
	<path class="st1" d="M20.69,27.2c0.72-1.39,1.93-2.45,3.39-3c1.41-0.7,3.02-0.85,4.53-0.42"/>
	<path class="st1" d="M51.31,27.2c-1.58-2.77-4.8-4.17-7.91-3.43"/>
	<ellipse class="st1" cx="36" cy="48.4" rx="5.25" ry="6.54"/>
	<path d="M30,35c0,1.66-1.34,3-3,3c-1.66,0-3-1.34-3-3c0-1.66,1.34-3,3-3C28.66,32,30,33.34,30,35"/>
	<path d="M48,35c0,1.66-1.34,3-3,3s-3-1.34-3-3c0-1.66,1.34-3,3-3S48,33.34,48,35"/>
</g>
</svg>
